<?xml version="1.0" standalone="no"?>
<!DOCTYPE svg PUBLIC "-//W3C//DTD SVG 20010904//EN"
 "http://www.w3.org/TR/2001/REC-SVG-20010904/DTD/svg10.dtd">
<svg version="1.0" xmlns="http://www.w3.org/2000/svg"
 width="76.000000pt" height="76.000000pt" viewBox="0 0 76.000000 76.000000"
 preserveAspectRatio="xMidYMid meet">
<metadata>
Created by potrace 1.11, written by Peter Selinger 2001-2013
</metadata>
<g transform="translate(0.000000,76.000000) scale(0.100000,-0.100000)"
fill="#000000" stroke="none">
<path d="M42 744 c-27 -19 -28 -48 -2 -74 19 -19 33 -20 345 -20 312 0 326 1
345 20 26 26 25 55 -2 74 -19 14 -69 16 -343 16 -274 0 -324 -2 -343 -16z"/>
<path d="M66 581 c-14 -15 -16 -51 -16 -284 0 -263 0 -266 22 -281 29 -21 51
-20 71 2 14 16 17 44 17 187 l0 169 80 -114 c44 -63 87 -123 95 -133 15 -17
71 -23 91 -9 5 4 49 63 97 131 l87 124 0 -171 c0 -165 1 -171 22 -186 29 -21
51 -20 71 2 15 16 17 51 17 278 0 281 -2 294 -53 301 -30 4 -49 -17 -187 -216
l-93 -134 -21 25 c-12 14 -52 72 -91 129 -108 158 -138 194 -167 196 -14 2
-33 -6 -42 -16z"/>
</g>
</svg>
